999
Dxf file generated by Atechnology.winDraw.Dxf, Copyright(C) 2012 Daniel Carvajal, Licensed under LGPL
0
SECTION
2
HEADER
9
$ACADVER
1
AC1024
9
$HANDSEED
5
a3
0
ENDSEC
0
SECTION
2
TABLES
0
TABLE
2
VPORT
5
1
100
AcDbSymbolTable
0
VPORT
5
64
100
AcDbSymbolTableRecord
100
AcDbViewportTableRecord
2
*Active
70
0
10
0
20
0
11
1
21
1
12
-1
22
1
13
0
23
0
14
0.5
24
0.5
15
10
25
10
16
0
26
0
36
1
17
0
27
0
37
0
0
ENDTAB
0
TABLE
2
LTYPE
5
2
100
AcDbSymbolTable
0
LTYPE
5
6b
100
AcDbSymbolTableRecord
100
AcDbLinetypeTableRecord
70
0
2
Continuous
3
Solid line
72
65
73
0
40
0
0
LTYPE
5
6c
100
AcDbSymbolTableRecord
100
AcDbLinetypeTableRecord
70
0
2
ByLayer
3

72
65
73
0
40
0
0
LTYPE
5
6d
100
AcDbSymbolTableRecord
100
AcDbLinetypeTableRecord
70
0
2
ByBlock
3

72
65
73
0
40
0
0
ENDTAB
0
TABLE
2
LAYER
5
3
100
AcDbSymbolTable
0
LAYER
5
66
100
AcDbSymbolTableRecord
100
AcDbLayerTableRecord
70
0
2
frame
62
2
6
Continuous
390
65
0
LAYER
5
67
100
AcDbSymbolTableRecord
100
AcDbLayerTableRecord
70
0
2
impost
62
1
6
Continuous
390
65
0
LAYER
5
68
100
AcDbSymbolTableRecord
100
AcDbLayerTableRecord
70
0
2
leaf
62
5
6
Continuous
390
65
0
LAYER
5
69
100
AcDbSymbolTableRecord
100
AcDbLayerTableRecord
70
0
2
fill
62
4
6
Continuous
390
65
0
LAYER
5
6a
100
AcDbSymbolTableRecord
100
AcDbLayerTableRecord
70
0
2
0
62
7
6
Continuous
390
65
0
ENDTAB
0
TABLE
2
STYLE
5
4
100
AcDbSymbolTable
0
STYLE
5
6e
100
AcDbSymbolTableRecord
100
AcDbTextStyleTableRecord
2
Standard
3
simplex
70
0
71
0
40
0
41
1
42
0
50
0
0
ENDTAB
0
TABLE
2
VIEW
5
5
100
AcDbSymbolTable
0
ENDTAB
0
TABLE
2
UCS
5
6
100
AcDbSymbolTable
0
ENDTAB
0
TABLE
2
APPID
5
7
100
AcDbSymbolTable
0
APPID
5
75
100
AcDbSymbolTableRecord
100
AcDbRegAppTableRecord
2
ACAD
70
0
0
ENDTAB
0
TABLE
2
DIMSTYLE
5
8
100
AcDbSymbolTable
100
AcDbDimStyleTable
0
DIMSTYLE
105
76
100
AcDbSymbolTableRecord
100
AcDbDimStyleTableRecord
2
Standard
70
0
0
ENDTAB
0
TABLE
2
BLOCK_RECORD
5
9
100
AcDbSymbolTable
0
BLOCK_RECORD
5
6f
100
AcDbSymbolTableRecord
100
AcDbBlockTableRecord
2
*Model_Space
0
BLOCK_RECORD
5
72
100
AcDbSymbolTableRecord
100
AcDbBlockTableRecord
2
*Paper_Space
0
ENDTAB
0
ENDSEC
0
SECTION
2
BLOCKS
0
BLOCK
5
71
100
AcDbEntity
8
0
100
AcDbBlockBegin
2
*Model_Space
70
0
10
0
20
0
30
0
3
*Model_Space
0
ENDBLK
5
70
100
AcDbEntity
8
0
100
AcDbBlockEnd
0
BLOCK
5
74
100
AcDbEntity
8
0
100
AcDbBlockBegin
2
*Paper_Space
70
0
10
0
20
0
30
0
3
*Paper_Space
0
ENDBLK
5
73
100
AcDbEntity
8
0
100
AcDbBlockEnd
0
ENDSEC
0
SECTION
2
ENTITIES
0
LINE
5
77
100
AcDbEntity
8
frame
62
256
6
ByLayer
100
AcDbLine
10
889
20
71
30
0
11
71
21
71
31
0
39
0
210
0
220
0
230
1
0
LINE
5
78
100
AcDbEntity
8
frame
62
256
6
ByLayer
100
AcDbLine
10
960
20
-1.17562209966948E-13
30
0
11
0
21
0
31
0
39
0
210
0
220
0
230
1
0
LINE
5
79
100
AcDbEntity
8
frame
62
256
6
ByLayer
100
AcDbLine
10
889
20
71
30
0
11
960
21
-1.17562209966948E-13
31
0
39
0
210
0
220
0
230
1
0
LINE
5
7a
100
AcDbEntity
8
frame
62
256
6
ByLayer
100
AcDbLine
10
71
20
71
30
0
11
0
21
0
31
0
39
0
210
0
220
0
230
1
0
LINE
5
7b
100
AcDbEntity
8
frame
62
256
6
ByLayer
100
AcDbLine
10
71
20
71
30
0
11
71
21
1989
31
0
39
0
210
0
220
0
230
1
0
LINE
5
7c
100
AcDbEntity
8
frame
62
256
6
ByLayer
100
AcDbLine
10
0
20
0
30
0
11
1.26134454443705E-13
21
2060
31
0
39
0
210
0
220
0
230
1
0
LINE
5
7d
100
AcDbEntity
8
frame
62
256
6
ByLayer
100
AcDbLine
10
71
20
71
30
0
11
0
21
0
31
0
39
0
210
0
220
0
230
1
0
LINE
5
7e
100
AcDbEntity
8
frame
62
256
6
ByLayer
100
AcDbLine
10
71
20
1989
30
0
11
1.26134454443705E-13
21
2060
31
0
39
0
210
0
220
0
230
1
0
LINE
5
7f
100
AcDbEntity
8
frame
62
256
6
ByLayer
100
AcDbLine
10
71
20
1989
30
0
11
889
21
1989
31
0
39
0
210
0
220
0
230
1
0
LINE
5
80
100
AcDbEntity
8
frame
62
256
6
ByLayer
100
AcDbLine
10
1.26134454443705E-13
20
2060
30
0
11
960
21
2060
31
0
39
0
210
0
220
0
230
1
0
LINE
5
81
100
AcDbEntity
8
frame
62
256
6
ByLayer
100
AcDbLine
10
71
20
1989
30
0
11
1.26134454443705E-13
21
2060
31
0
39
0
210
0
220
0
230
1
0
LINE
5
82
100
AcDbEntity
8
frame
62
256
6
ByLayer
100
AcDbLine
10
889
20
1989
30
0
11
960
21
2060
31
0
39
0
210
0
220
0
230
1
0
LINE
5
83
100
AcDbEntity
8
frame
62
256
6
ByLayer
100
AcDbLine
10
889
20
1989
30
0
11
889
21
71
31
0
39
0
210
0
220
0
230
1
0
LINE
5
84
100
AcDbEntity
8
frame
62
256
6
ByLayer
100
AcDbLine
10
960
20
2060
30
0
11
960
21
-1.17562209966948E-13
31
0
39
0
210
0
220
0
230
1
0
LINE
5
85
100
AcDbEntity
8
frame
62
256
6
ByLayer
100
AcDbLine
10
889
20
1989
30
0
11
960
21
2060
31
0
39
0
210
0
220
0
230
1
0
LINE
5
86
100
AcDbEntity
8
frame
62
256
6
ByLayer
100
AcDbLine
10
889
20
71
30
0
11
960
21
-1.17562209966948E-13
31
0
39
0
210
0
220
0
230
1
0
LINE
5
87
100
AcDbEntity
8
impost
62
256
6
ByLayer
100
AcDbLine
10
137
20
900.25
30
0
11
823
21
900.25
31
0
39
0
210
0
220
0
230
1
0
LINE
5
88
100
AcDbEntity
8
impost
62
256
6
ByLayer
100
AcDbLine
10
137
20
981.75
30
0
11
823
21
981.75
31
0
39
0
210
0
220
0
230
1
0
LINE
5
89
100
AcDbEntity
8
impost
62
256
6
ByLayer
100
AcDbLine
10
137
20
900.25
30
0
11
137
21
981.75
31
0
39
0
210
0
220
0
230
1
0
LINE
5
8a
100
AcDbEntity
8
impost
62
256
6
ByLayer
100
AcDbLine
10
823
20
900.25
30
0
11
823
21
981.75
31
0
39
0
210
0
220
0
230
1
0
LINE
5
8b
100
AcDbEntity
8
leaf
62
256
6
ByLayer
100
AcDbLine
10
800
20
160
30
0
11
160
21
160
31
0
39
0
210
0
220
0
230
1
0
LINE
5
8c
100
AcDbEntity
8
leaf
62
256
6
ByLayer
100
AcDbLine
10
919
20
41
30
0
11
41
21
41
31
0
39
0
210
0
220
0
230
1
0
LINE
5
8d
100
AcDbEntity
8
leaf
62
256
6
ByLayer
100
AcDbLine
10
800
20
160
30
0
11
919
21
41
31
0
39
0
210
0
220
0
230
1
0
LINE
5
8e
100
AcDbEntity
8
leaf
62
256
6
ByLayer
100
AcDbLine
10
160
20
160
30
0
11
41
21
41
31
0
39
0
210
0
220
0
230
1
0
LINE
5
8f
100
AcDbEntity
8
leaf
62
256
6
ByLayer
100
AcDbLine
10
160
20
160
30
0
11
160
21
1900
31
0
39
0
210
0
220
0
230
1
0
LINE
5
90
100
AcDbEntity
8
leaf
62
256
6
ByLayer
100
AcDbLine
10
41
20
41
30
0
11
41
21
2019
31
0
39
0
210
0
220
0
230
1
0
LINE
5
91
100
AcDbEntity
8
leaf
62
256
6
ByLayer
100
AcDbLine
10
160
20
160
30
0
11
41
21
41
31
0
39
0
210
0
220
0
230
1
0
LINE
5
92
100
AcDbEntity
8
leaf
62
256
6
ByLayer
100
AcDbLine
10
160
20
1900
30
0
11
41
21
2019
31
0
39
0
210
0
220
0
230
1
0
LINE
5
93
100
AcDbEntity
8
leaf
62
256
6
ByLayer
100
AcDbLine
10
160
20
1900
30
0
11
800
21
1900
31
0
39
0
210
0
220
0
230
1
0
LINE
5
94
100
AcDbEntity
8
leaf
62
256
6
ByLayer
100
AcDbLine
10
41
20
2019
30
0
11
919
21
2019
31
0
39
0
210
0
220
0
230
1
0
LINE
5
95
100
AcDbEntity
8
leaf
62
256
6
ByLayer
100
AcDbLine
10
160
20
1900
30
0
11
41
21
2019
31
0
39
0
210
0
220
0
230
1
0
LINE
5
96
100
AcDbEntity
8
leaf
62
256
6
ByLayer
100
AcDbLine
10
800
20
1900
30
0
11
919
21
2019
31
0
39
0
210
0
220
0
230
1
0
LINE
5
97
100
AcDbEntity
8
leaf
62
256
6
ByLayer
100
AcDbLine
10
800
20
1900
30
0
11
800
21
160
31
0
39
0
210
0
220
0
230
1
0
LINE
5
98
100
AcDbEntity
8
leaf
62
256
6
ByLayer
100
AcDbLine
10
919
20
2019
30
0
11
919
21
41
31
0
39
0
210
0
220
0
230
1
0
LINE
5
99
100
AcDbEntity
8
leaf
62
256
6
ByLayer
100
AcDbLine
10
800
20
1900
30
0
11
919
21
2019
31
0
39
0
210
0
220
0
230
1
0
LINE
5
9a
100
AcDbEntity
8
leaf
62
256
6
ByLayer
100
AcDbLine
10
800
20
160
30
0
11
919
21
41
31
0
39
0
210
0
220
0
230
1
0
LINE
5
9b
100
AcDbEntity
8
fill
62
256
6
ByLayer
100
AcDbLine
10
142
20
915.25
30
0
11
818
21
915.25
31
0
39
0
210
0
220
0
230
1
0
LINE
5
9c
100
AcDbEntity
8
fill
62
256
6
ByLayer
100
AcDbLine
10
818
20
915.25
30
0
11
818
21
142
31
0
39
0
210
0
220
0
230
1
0
LINE
5
9d
100
AcDbEntity
8
fill
62
256
6
ByLayer
100
AcDbLine
10
818
20
142
30
0
11
142
21
142
31
0
39
0
210
0
220
0
230
1
0
LINE
5
9e
100
AcDbEntity
8
fill
62
256
6
ByLayer
100
AcDbLine
10
142
20
142
30
0
11
142
21
915.25
31
0
39
0
210
0
220
0
230
1
0
LINE
5
9f
100
AcDbEntity
8
fill
62
256
6
ByLayer
100
AcDbLine
10
818
20
966.75
30
0
11
142
21
966.75
31
0
39
0
210
0
220
0
230
1
0
LINE
5
a0
100
AcDbEntity
8
fill
62
256
6
ByLayer
100
AcDbLine
10
142
20
966.75
30
0
11
142
21
1918
31
0
39
0
210
0
220
0
230
1
0
LINE
5
a1
100
AcDbEntity
8
fill
62
256
6
ByLayer
100
AcDbLine
10
142
20
1918
30
0
11
818
21
1918
31
0
39
0
210
0
220
0
230
1
0
LINE
5
a2
100
AcDbEntity
8
fill
62
256
6
ByLayer
100
AcDbLine
10
818
20
1918
30
0
11
818
21
966.75
31
0
39
0
210
0
220
0
230
1
0
ENDSEC
0
SECTION
2
OBJECTS
0
DICTIONARY
5
a
100
AcDbDictionary
281
1
3
ACAD_GROUP
350
b
0
DICTIONARY
5
b
100
AcDbDictionary
281
1
0
ENDSEC
0
EOF
